<svg version="1.2" xmlns="http://www.w3.org/2000/svg" viewBox="0 0 1024 1024" width="1024" height="1024">
	<title>Shohayok S Logo</title>
	<style>
		.s0 { fill: #4801fe } 
		.s1 { fill: #4903fe } 
	</style>
	<path class="s0" d="m215.9 84.2c2.6 0 5.2 0 7.9-0.1q13 0 26.1 0 9.4 0 18.7-0.1 30.8-0.1 61.6-0.1 10.6 0 21.2-0.1 49.8-0.1 99.7-0.1 57.5-0.1 114.9-0.3 44.5-0.1 88.9-0.1 26.6 0 53.1-0.2 25-0.1 50 0 9.1 0 18.2-0.1c46.5-0.3 89 4 125.8 35.7 27.5 29 41.4 60.7 41.3 100.4 0.1 2.6 0.1 5.1 0.1 7.8q0 12.9 0 25.9 0.1 9.2 0.1 18.5 0.1 30.5 0.2 60.9 0 10.5 0 21 0.1 49.4 0.1 98.7 0.1 56.9 0.3 113.8 0.2 44 0.2 88 0 26.3 0.1 52.5 0.1 24.8 0 49.5 0 9 0.1 18.1c0.4 49.9-7.3 89.8-41.6 128-30 28.8-67.8 38-108.3 38.1-2.6 0.1-5.1 0.1-7.7 0.1q-12.6 0-25.2 0-9 0.1-18.1 0.1-29.7 0.1-59.4 0.2-10.2 0-20.5 0-48.1 0.1-96.3 0.1-55.5 0.1-110.9 0.3-43 0.2-86 0.2-25.6 0-51.2 0.1-24.1 0.1-48.3 0-8.8 0-17.6 0.1c-49 0.4-93.1-5-131.3-39.1-30.7-32.8-41.4-63.3-41.3-108 0-2.6 0-5.1 0-7.7q-0.1-12.7-0.1-25.4 0-9.1 0-18.3-0.1-24.7-0.1-49.5 0-15.5 0-30.9-0.1-48.5-0.1-97-0.1-55.9-0.2-111.7-0.1-43.3-0.1-86.5 0-25.8-0.1-51.7-0.1-24.2 0-48.5 0-8.9-0.1-17.8c-0.2-48.2 4.7-89.4 38-126.9 27.5-26 60.6-37.9 97.9-37.9zm-39.3 102.6c-1.5 1.8-3 3.6-4.5 5.4-14.8 22.8-11 53.2-10.9 79.3q0 8.7 0 17.5c-0.1 15.7-0.1 31.5 0 47.3 0 16.5 0 33.1 0 49.6q-0.1 41.7 0 83.4 0.1 48.1 0 96.2-0.1 41.4 0 82.8 0 24.6-0.1 49.3 0 23.2 0.1 46.4 0 8.5 0 17c-0.6 40.2-0.6 40.2 15.4 76.3 18 18 37.3 21.3 62.1 21.3 2.4 0 4.8 0 7.3 0q12 0.1 24 0.1 8.6 0 17.3 0 23.4 0.1 46.8 0 19.6 0 39.2 0.1 46.2 0 92.3 0 47.6 0 95.2 0.1 41 0.1 81.9 0.1 24.4-0.1 48.8 0 23 0.1 45.9 0 8.5 0 16.9 0c45.8 1.2 45.8 1.2 86.8-17 1.5-1.9 3-3.8 4.5-5.8 2.3-2.8 2.3-2.8 4.6-5.7 10-16.8 11.8-32.7 11.8-51.9 0-3.6 0-3.6 0.1-7.3q0-12 0-24 0-8.7 0.1-17.3 0.1-23.5 0.1-46.9 0-14.7 0-29.3 0.1-51.2 0.1-102.3 0-47.7 0.2-95.3 0.1-40.9 0.1-81.9 0-24.4 0.1-48.8 0.1-23 0-46 0-8.4 0-16.9c0.6-39.8 0.6-39.8-15.3-75.8-18-17.5-34.4-21.2-59.1-21.3-2.5-0.1-4.9-0.1-7.5-0.1q-12.5-0.1-24.9-0.1-9 0-17.9-0.1-24.3-0.1-48.6-0.1-15.2-0.1-30.3-0.1-47.6-0.2-95.1-0.2-54.8-0.1-109.6-0.4-42.4-0.2-84.8-0.2-25.3 0-50.6-0.2-23.8-0.1-47.6 0-8.7 0-17.4-0.1c-43.5-1.2-43.5-1.2-77.5 22.9z"/>
	<path class="s1" d="m476.3 274q7.1 0 14.2 0 14.8-0.1 29.7-0.1 18.9 0 37.8-0.2 14.7-0.1 29.3-0.1 7 0 14 0c34.4-0.4 69.4 1.3 97.4 23.8 21.3 21.1 32.3 48.5 32.8 78.3q-0.1 9.4-0.3 18.8c-0.2 11.1-0.4 22.1-0.6 33.5-29.3 0-58.6 0-88.7 0-1-11.1-2-22.2-3.1-33.7-5.7-16.3-5.7-16.3-17.5-27.7-8.2-3.4-14.4-3.6-23.2-3.7-3.3 0-6.5 0-9.8-0.1-3.5 0-7 0-10.6 0-3.6 0-7.2 0-11 0q-11.4 0-22.8 0c-11.7 0-23.3-0.1-35-0.1q-11.1-0.1-22.2-0.1c-3.5 0-7 0-10.6 0-20.7 0.1-36 1.1-51.4 16.5-2.6 10.3-2.6 10.3 0 21.4 15.7 14.2 37.9 21.2 57.4 28.6 3.1 1.2 6.3 2.4 9.5 3.7q15 5.7 30 11.4 9.9 3.8 19.7 7.6c25.4 9.8 50.8 19.5 76.3 29 3 1.1 5.9 2.2 8.9 3.3q8.2 3.1 16.4 6.1c34.9 13.1 57.8 34.7 73.4 68.6 13.4 31.4 13.9 75.4 2 107.4-17.6 38.3-38.8 62.5-78.5 78.6-12.6 4.6-23.7 5.6-37.1 5.6-3.4 0-3.4 0-6.9 0q-11 0.1-22.1 0-7.7 0-15.5 0-16.2 0.1-32.4 0-20.7-0.1-41.4 0-16 0.1-32 0-7.6 0-15.3 0.1c-46.6 0.1-80.4-6.5-115.7-38.8-28.6-30.1-32.3-66.7-31.7-106.3 0.1-12.1 0.3-24.2 0.4-36.7 30.3 0 60.6 0 91.8 0 0.3 7.6 0.7 15.2 1.1 23 1.5 36.1 1.5 36.1 20.3 65.7 17.4 8.1 35.2 7 54.1 7 3.4 0 6.9 0 10.4 0q10.9 0 21.8-0.1 16.7 0 33.3 0.1 10.6 0 21.3 0c4.9 0 4.9 0 9.9 0 26.2-0.2 48.3-2.1 69.4-19.2 9.6-14.8 8.3-32.1 6.1-49-17.3-27.2-60.9-36.5-90.2-46.8-12.2-4.3-24.4-8.7-36.5-13-3.7-1.4-3.7-1.4-7.5-2.7q-35.6-12.7-71.1-26c-5.3-1.9-5.3-1.9-10.7-3.9-32.8-12.3-66.1-26.2-81.4-59.7-13.4-36-10.7-66.4 3.8-101.8 16.5-32.2 42.9-53.2 76.9-64.3 20.7-5 42.2-4 63.4-4z"/>
</svg>